<?xml version="1.0" encoding="UTF-8" standalone="no"?>
<svg
   xmlns:dc="http://purl.org/dc/elements/1.1/"
   xmlns:cc="http://creativecommons.org/ns#"
   xmlns:rdf="http://www.w3.org/1999/02/22-rdf-syntax-ns#"
   xmlns:svg="http://www.w3.org/2000/svg"
   xmlns="http://www.w3.org/2000/svg"
   xmlns:sodipodi="http://sodipodi.sourceforge.net/DTD/sodipodi-0.dtd"
   xmlns:inkscape="http://www.inkscape.org/namespaces/inkscape"
   width="210mm"
   height="297mm"
   viewBox="0 0 210 297"
   version="1.1"
   id="svg1638"
   inkscape:version="1.0.1 (3bc2e813f5, 2020-09-07)"
   sodipodi:docname="bishopEdited.svg">
  <defs
     id="defs1632">
    <inkscape:path-effect
       effect="spiro"
       id="path-effect2288"
       is_visible="true"
       lpeversion="1" />
    <inkscape:path-effect
       effect="spiro"
       id="path-effect2286"
       is_visible="true"
       lpeversion="1" />
    <inkscape:path-effect
       effect="spiro"
       id="path-effect2239"
       is_visible="true"
       lpeversion="1" />
    <inkscape:path-effect
       effect="spiro"
       id="path-effect2235"
       is_visible="true"
       lpeversion="1" />
    <inkscape:path-effect
       effect="spiro"
       id="path-effect1568"
       is_visible="true"
       lpeversion="1" />
  </defs>
  <sodipodi:namedview
     id="base"
     pagecolor="#ffffff"
     bordercolor="#666666"
     borderopacity="1.0"
     inkscape:pageopacity="0.0"
     inkscape:pageshadow="2"
     inkscape:zoom="0.80746152"
     inkscape:cx="289.67444"
     inkscape:cy="614.75099"
     inkscape:document-units="mm"
     inkscape:current-layer="layer1"
     inkscape:document-rotation="0"
     showgrid="false"
     inkscape:window-width="1920"
     inkscape:window-height="1001"
     inkscape:window-x="-9"
     inkscape:window-y="-9"
     inkscape:window-maximized="1">
    <inkscape:grid
       type="xygrid"
       id="grid2315" />
  </sodipodi:namedview>
  <metadata
     id="metadata1635">
    <rdf:RDF>
      <cc:Work
         rdf:about="">
        <dc:format>image/svg+xml</dc:format>
        <dc:type
           rdf:resource="http://purl.org/dc/dcmitype/StillImage" />
        <dc:title></dc:title>
      </cc:Work>
    </rdf:RDF>
  </metadata>
  <g
     inkscape:label="Layer 1"
     inkscape:groupmode="layer"
     id="layer1">
    <path
       style="fill:none;stroke:none;stroke-width:3.67429;stroke-linecap:butt;stroke-linejoin:miter;stroke-miterlimit:4;stroke-dasharray:none;stroke-opacity:1"
       d="m 54.273009,213.63143 c 3.207519,14.86522 16.251432,17.03308 16.251432,17.03308 -2.423194,3.81991 -4.846654,7.63946 -7.270378,11.45861 0,0 -14.326922,-2.47754 -22.880306,-28.49169 l 8.981054,-14.24585 c 0,0 55.810769,-3.7163 55.810769,-12.6974"
       id="path1662"
       sodipodi:nodetypes="cccccc" />
    <path
       style="fill:none;stroke:none;stroke-width:3.67429;stroke-linecap:butt;stroke-linejoin:miter;stroke-miterlimit:4;stroke-dasharray:none;stroke-opacity:1"
       d="m 40.373755,213.63143 c 0,0 64.791825,4.02598 64.791825,-26.94325"
       id="path1664" />
    <path
       style="fill:none;stroke:none;stroke-width:3.065;stroke-linecap:butt;stroke-linejoin:miter;stroke-miterlimit:4;stroke-dasharray:none;stroke-opacity:1"
       d="m 105.1666,186.92951 c 0,0 -10.947877,0 -30.697042,-4.9373 l 6.010627,-15.45589 h 25.115745"
       id="path2227"
       sodipodi:nodetypes="cccc" />
    <path
       style="fill:none;stroke:none;stroke-width:3.065;stroke-linecap:butt;stroke-linejoin:miter;stroke-miterlimit:4;stroke-dasharray:none;stroke-opacity:1"
       d="m 80.480185,166.53632 c -9.921578,-11.19217 -15.339552,-26.26823 -14.811899,-41.21561 0.347735,-9.85064 3.214258,-19.6021 8.252553,-28.07391 5.038296,-8.471807 12.23789,-15.64634 20.727214,-20.655064"
       id="path2233"
       inkscape:path-effect="#path-effect2235"
       inkscape:original-d="M 80.480185,166.53632 C 75.54315,152.79801 70.60585,139.05947 65.668286,125.32071 60.730722,111.5819 84.988418,92.834998 94.648053,76.591736" />
    <path
       style="fill:none;stroke:none;stroke-width:3.065;stroke-linecap:round;stroke-linejoin:round;stroke-miterlimit:4;stroke-dasharray:none;stroke-opacity:1"
       d="m 94.648053,76.591736 c -3.333675,-3.214691 -4.984967,-8.086034 -4.293276,-12.665247 0.542138,-3.589123 2.481644,-6.94859 5.318763,-9.212762 2.837118,-2.264172 6.54313,-3.410126 10.16309,-3.142582"
       id="path2237"
       inkscape:path-effect="#path-effect2239"
       inkscape:original-d="M 94.648053,76.591736 C 93.217219,72.37025 91.786128,68.148501 90.354777,63.926489 88.923413,59.704474 100.82807,54.57672 105.83663,51.571145"
       sodipodi:nodetypes="csc" />
    <path
       style="fill:none;stroke:none;stroke-width:3.6743;stroke-linecap:butt;stroke-linejoin:miter;stroke-miterlimit:4;stroke-dasharray:none;stroke-opacity:1"
       d="m 155.53094,213.63143 c -3.20752,14.86522 -16.25143,17.03308 -16.25143,17.03308 2.42319,3.81991 4.84664,7.63946 7.27037,11.45861 0,0 14.32692,-2.47754 22.88031,-28.49169 l -8.98105,-14.24585 c 0,0 -55.81069,-3.7163 -55.81069,-12.6974"
       id="path1662-6"
       sodipodi:nodetypes="cccccc" />
    <path
       style="fill:none;stroke:none;stroke-width:3.6743;stroke-linecap:butt;stroke-linejoin:miter;stroke-miterlimit:4;stroke-dasharray:none;stroke-opacity:1"
       d="m 169.43019,213.63143 c 0,0 -64.79174,4.02598 -64.79174,-26.94325"
       id="path1664-0" />
    <path
       style="fill:none;stroke:none;stroke-width:3.06501;stroke-linecap:butt;stroke-linejoin:miter;stroke-miterlimit:4;stroke-dasharray:none;stroke-opacity:1"
       d="m 104.63743,186.92951 c 0,0 10.94787,0 30.69696,-4.9373 l -6.01059,-15.45589 h -25.11569"
       id="path2227-7"
       sodipodi:nodetypes="cccc" />
    <path
       style="fill:none;stroke:none;stroke-width:3.06501;stroke-linecap:butt;stroke-linejoin:miter;stroke-miterlimit:4;stroke-dasharray:none;stroke-opacity:1"
       d="m 129.3238,166.53632 c 9.91628,-11.19577 15.33316,-26.26883 14.81186,-41.21561 -0.34846,-9.99089 -3.28648,-19.88051 -8.44933,-28.441138 -5.16285,-8.560624 -12.53923,-15.773504 -21.21341,-20.74321"
       id="path2233-5"
       inkscape:path-effect="#path-effect2288"
       inkscape:original-d="m 129.3238,166.53632 c 4.93701,-13.73831 9.87429,-27.47685 14.81186,-41.21561 4.93756,-13.73881 -20.00313,-32.941086 -29.66274,-49.184348"
       sodipodi:nodetypes="csc" />
    <path
       style="fill:none;stroke:none;stroke-width:3.06501;stroke-linecap:round;stroke-linejoin:round;stroke-miterlimit:4;stroke-dasharray:none;stroke-opacity:1"
       d="m 114.7006,76.439944 c 3.50365,-3.051581 5.34571,-7.905722 4.74865,-12.513456 -0.44127,-3.405394 -2.16928,-6.628369 -4.76136,-8.880592 -2.59209,-2.252224 -6.02477,-3.513292 -9.45842,-3.474751"
       id="path2237-2"
       inkscape:path-effect="#path-effect2286"
       inkscape:original-d="m 114.7006,76.439944 c 1.43083,-4.221486 3.3173,-8.291444 4.74865,-12.513456 1.43136,-4.222015 -9.21122,-9.349767 -14.21978,-12.355343"
       sodipodi:nodetypes="csc" />
    <path
       style="fill:#000000;fill-opacity:1;stroke:none;stroke-width:14.3465;stroke-linecap:round;stroke-linejoin:round;stroke-dashoffset:119.244"
       d="m 299.29742,612.91985 c -22.09531,-29.4403 -35.57595,-61.00104 -41.8638,-98.01106 -2.36144,-13.89938 -2.62599,-18.9816 -2.05527,-39.48332 0.48177,-17.30629 1.35505,-26.80646 3.3014,-35.91503 12.3249,-57.67842 44.43588,-105.55449 92.666,-138.16097 14.36653,-9.71265 15.13505,-11.57942 8.17499,-19.85759 -7.3767,-8.77373 -10.7903,-17.52924 -11.40918,-29.26327 -1.13309,-21.48377 10.53877,-39.66105 30.59289,-47.64414 8.78126,-3.49562 26.20159,-3.76615 34.8149,-0.54066 13.25063,4.96208 24.30677,16.01884 29.2632,29.26486 1.29801,3.4689 2.10239,9.33205 2.13052,15.52929 0.039,8.60399 -0.4775,11.07322 -3.80314,18.17995 -2.11658,4.52302 -6.12518,10.69376 -8.90798,13.71276 -5.12567,5.56069 -6.3276,9.6516 -3.5116,11.95215 0.85143,0.69559 7.49298,5.17691 14.75899,9.95849 14.18319,9.3336 34.73993,28.04457 45.92617,41.8025 53.82727,66.20204 63.97547,155.83624 26.32708,232.53449 -6.98599,14.23204 -18.34628,32.198 -26.03807,41.17843 l -4.50814,5.26341 H 396.1672 307.17801 Z M 409.804,500.81368 v -86.69144 h 27.24588 27.24588 V 401.73775 389.35326 H 437.04988 409.804 V 359.63048 329.9077 h -14.86139 -14.86139 v 29.10355 29.10356 h -25.38821 -25.3882 v 13.00371 13.00372 h 25.3882 25.38821 v 86.69144 86.69143 h 14.86139 14.86139 z"
       id="path852"
       transform="scale(0.26458333)" />
    <path
       style="fill:#000000;fill-opacity:1;stroke:none;stroke-width:14.3465;stroke-linecap:round;stroke-linejoin:round;stroke-dashoffset:119.244"
       d="m 373.26975,698.38418 c -27.73086,-3.20082 -82.35687,-13.64678 -82.35687,-15.74884 0,-0.60696 3.9852,-11.39587 8.856,-23.97534 l 8.85599,-22.87177 87.97088,0.31781 87.97088,0.31781 8.93533,22.91131 c 4.91442,12.60122 8.57368,23.28847 8.13168,23.74943 -1.46923,1.53229 -41.35754,9.53826 -63.34531,12.71402 -27.83831,4.02077 -46.24345,4.75268 -65.01858,2.58557 z"
       id="path854"
       transform="scale(0.26458333)" />
    <path
       style="fill:#000000;fill-opacity:1;stroke:none;stroke-width:14.3465;stroke-linecap:round;stroke-linejoin:round;stroke-dashoffset:119.244"
       d="m 167.06797,799.70331 c 0,-0.74967 21.7248,-35.85142 23.41058,-37.82553 0.40762,-0.47734 13.27998,-2.03398 28.60526,-3.4592 68.63258,-6.38272 124.1963,-15.66323 152.25781,-25.4308 6.79364,-2.36471 12.65386,-4.29947 13.02273,-4.29947 1.77383,0 0.23231,4.00352 -4.09854,10.64443 -22.17177,33.99813 -76.80801,54.22678 -161.8022,59.90602 -21.12101,1.41129 -51.39564,1.68493 -51.39564,0.46455 z"
       id="path856"
       transform="scale(0.26458333)" />
    <path
       style="fill:#000000;fill-opacity:1;stroke:none;stroke-width:14.3465;stroke-linecap:round;stroke-linejoin:round;stroke-dashoffset:119.244"
       d="m 572.04083,799.16248 c -83.61805,-5.88382 -140.83132,-27.67183 -160.1747,-60.99787 -1.64142,-2.82795 -3.35545,-6.34429 -3.80894,-7.81409 -0.8098,-2.62459 -0.66317,-2.60974 8.20144,0.83053 27.25357,10.57683 81.81515,19.97862 158.2591,27.27045 16.05941,1.53187 27.18599,3.13372 28.03604,4.03624 1.10933,1.1778 19.05003,29.36803 23.21807,36.48256 1.05378,1.79872 -29.35394,1.90749 -53.73101,0.19218 z"
       id="path858"
       transform="scale(0.26458333)" />
    <path
       style="fill:#000000;fill-opacity:1;stroke:none;stroke-width:14.3465;stroke-linecap:round;stroke-linejoin:round;stroke-dashoffset:119.244"
       d="m 550.63563,895.56933 c -3.60713,-5.61946 -7.75035,-12.1691 -9.20716,-14.55475 l -2.64875,-4.33754 10.71105,-5.57005 c 19.43451,-10.1065 36.50794,-30.40828 42.43916,-50.46383 l 1.5566,-5.26341 h 17.84494 17.84494 l -0.87432,2.78651 c -1.95821,6.24099 -10.89491,25.43045 -15.67005,33.64776 -13.43399,23.11795 -32.02082,42.76803 -48.21703,50.97528 -3.25313,1.64848 -6.20867,2.99724 -6.56787,2.99724 -0.3592,0 -3.60438,-4.59775 -7.21151,-10.21721 z"
       id="path860"
       transform="scale(0.26458333)" />
    <path
       style="fill:#000000;fill-opacity:1;stroke:none;stroke-width:14.3465;stroke-linecap:round;stroke-linejoin:round;stroke-dashoffset:119.244"
       d="m 228.36135,902.54299 c -23.97929,-12.58054 -47.81328,-43.37744 -62.42456,-80.66138 l -2.54802,-6.50186 h 17.8434 17.84339 l 1.50468,4.64419 c 7.47214,23.06265 26.26083,44.24846 47.62168,53.69738 3.05662,1.35209 5.55749,2.79104 5.55749,3.19767 0,1.11698 -17.86255,28.85389 -18.58659,28.8612 -0.34599,0.003 -3.41115,-1.45325 -6.81147,-3.2372 z"
       id="path862"
       transform="scale(0.26458333)" />
  </g>
</svg>
