<?xml version="1.0" encoding="UTF-8" standalone="no"?>
<svg
   xmlns:dc="http://purl.org/dc/elements/1.1/"
   xmlns:cc="http://creativecommons.org/ns#"
   xmlns:rdf="http://www.w3.org/1999/02/22-rdf-syntax-ns#"
   xmlns:svg="http://www.w3.org/2000/svg"
   xmlns="http://www.w3.org/2000/svg"
   xmlns:sodipodi="http://sodipodi.sourceforge.net/DTD/sodipodi-0.dtd"
   xmlns:inkscape="http://www.inkscape.org/namespaces/inkscape"
   width="210mm"
   height="297mm"
   viewBox="0 0 210 297"
   version="1.1"
   id="svg2323"
   sodipodi:docname="queenEdited.svg"
   inkscape:version="1.0.1 (3bc2e813f5, 2020-09-07)">
  <defs
     id="defs2317">
    <inkscape:path-effect
       effect="spiro"
       id="path-effect1568"
       is_visible="true"
       lpeversion="1" />
  </defs>
  <sodipodi:namedview
     id="base"
     pagecolor="#ffffff"
     bordercolor="#666666"
     borderopacity="1.0"
     inkscape:pageopacity="0.0"
     inkscape:pageshadow="2"
     inkscape:zoom="9.5928225"
     inkscape:cx="416.60038"
     inkscape:cy="254.68212"
     inkscape:document-units="mm"
     inkscape:current-layer="layer1"
     inkscape:document-rotation="0"
     showgrid="false"
     inkscape:window-width="1920"
     inkscape:window-height="1001"
     inkscape:window-x="-9"
     inkscape:window-y="-9"
     inkscape:window-maximized="1" />
  <metadata
     id="metadata2320">
    <rdf:RDF>
      <cc:Work
         rdf:about="">
        <dc:format>image/svg+xml</dc:format>
        <dc:type
           rdf:resource="http://purl.org/dc/dcmitype/StillImage" />
        <dc:title />
      </cc:Work>
    </rdf:RDF>
  </metadata>
  <g
     inkscape:label="Layer 1"
     inkscape:groupmode="layer"
     id="layer1">
    <path
       style="fill:none;stroke:none;stroke-width:3.065;stroke-linecap:butt;stroke-linejoin:miter;stroke-miterlimit:4;stroke-dasharray:none;stroke-opacity:1"
       d="m 106.50574,229.32594 c 0,0 -38.374064,0.48885 -68.682238,-4.88841 l -0.244421,-10.51009 h 68.926659"
       id="path2953" />
    <path
       style="fill:none;stroke:none;stroke-width:3.065;stroke-linecap:butt;stroke-linejoin:miter;stroke-miterlimit:4;stroke-dasharray:none;stroke-opacity:1"
       d="m 37.57908,213.92744 v -13.93199 h 68.92666"
       id="path2955" />
    <path
       style="fill:none;stroke:none;stroke-width:3.065;stroke-linecap:butt;stroke-linejoin:miter;stroke-miterlimit:4;stroke-dasharray:none;stroke-opacity:1"
       d="m 37.57908,199.99545 v -14.42083 h 68.92666"
       id="path2957" />
    <path
       style="fill:none;stroke:none;stroke-width:3.065;stroke-linecap:butt;stroke-linejoin:miter;stroke-miterlimit:4;stroke-dasharray:none;stroke-opacity:1"
       d="m 106.50574,185.57462 c 0,0 -78.45907,-8.79914 -66.726872,-76.74811 0,0 6.8872,-26.206896 32.752383,-20.286924 27.490789,6.292036 33.974489,97.035034 33.974489,97.035034"
       id="path2963"
       sodipodi:nodetypes="ccsc" />
    <path
       style="fill:none;stroke:none;stroke-width:3.065;stroke-linecap:butt;stroke-linejoin:miter;stroke-miterlimit:4;stroke-dasharray:none;stroke-opacity:1"
       d="m 106.7022,55.193362 h -0.92495 l -0.0181,3.905728 -3.49826,0.01884 -0.0109,1.403904 3.66469,0.08851 -0.11683,8.964619 -0.72166,0.970196 c 0,0 -12.813893,12.861595 -10.369686,50.016991"
       id="path2965"
       sodipodi:nodetypes="ccccccccc" />
    <g
       id="g3068"
       transform="matrix(-0.99953034,0,0,1.0000028,243.68422,62.720283)"
       style="stroke:none">
      <path
         style="fill:none;stroke:none;stroke-width:3.06501;stroke-linecap:butt;stroke-linejoin:miter;stroke-miterlimit:4;stroke-dasharray:none;stroke-opacity:1"
         d="m 137.34371,166.60544 c 0,0 -38.37406,0.48884 -68.682235,-4.88841 l -0.244421,-10.5101 h 68.926656"
         id="path2953-2" />
      <path
         style="fill:none;stroke:none;stroke-width:3.06501;stroke-linecap:butt;stroke-linejoin:miter;stroke-miterlimit:4;stroke-dasharray:none;stroke-opacity:1"
         d="M 68.417053,151.20693 V 137.27494 H 137.34371"
         id="path2955-7" />
      <path
         style="fill:none;stroke:none;stroke-width:3.06501;stroke-linecap:butt;stroke-linejoin:miter;stroke-miterlimit:4;stroke-dasharray:none;stroke-opacity:1"
         d="M 68.417053,137.27494 V 122.85411 H 137.34371"
         id="path2957-0" />
      <path
         style="fill:none;stroke:none;stroke-width:3.06501;stroke-linecap:butt;stroke-linejoin:miter;stroke-miterlimit:4;stroke-dasharray:none;stroke-opacity:1"
         d="m 137.34371,122.85411 c 0,0 -78.459067,-8.79914 -66.726869,-76.748115 0,0 6.8872,-26.206894 32.752379,-20.286922 27.49079,6.292035 33.97449,97.035037 33.97449,97.035037"
         id="path2963-1"
         sodipodi:nodetypes="ccsc" />
      <path
         style="fill:none;stroke:none;stroke-width:3.06501;stroke-linecap:butt;stroke-linejoin:miter;stroke-miterlimit:4;stroke-dasharray:none;stroke-opacity:1"
         d="M 137.54017,-7.527151 H 136.444 l -0.018,3.9914438 -3.18385,0.025775 -0.0158,1.4408486 3.18519,0.019525 0.0817,8.9325775 -0.57904,0.941624 c 0,0 -12.81389,12.8615961 -10.36969,50.0169991"
         id="path2965-4"
         sodipodi:nodetypes="ccccccccc" />
    </g>
    <path
       style="fill:#000000;fill-opacity:1;stroke:none;stroke-width:11.4936;stroke-linecap:round;stroke-linejoin:round;stroke-miterlimit:4;stroke-dasharray:none;stroke-dashoffset:119.244;stroke-opacity:1"
       d="m 384.66688,692.12597 c -27.9593,-5.94677 -59.47764,-15.58356 -80.86202,-24.72374 -37.44978,-16.0069 -65.52525,-34.06965 -90.054,-57.93751 -34.36137,-33.43558 -53.64539,-71.68418 -59.72958,-118.46978 -2.70306,-20.78569 -1.43831,-60.01586 2.5089,-77.82174 1.48144,-6.68278 8.20352,-21.40615 13.97556,-30.61067 13.51679,-21.55487 32.50132,-36.38871 54.04624,-42.22985 10.19397,-2.76373 32.71649,-3.00075 44.03077,-0.46336 22.27079,4.99454 39.20521,20.1967 56.17142,50.4255 31.8864,56.81223 55.50896,156.67785 70.41828,297.69709 0.69986,6.61957 0.86844,6.55323 -10.50557,4.13406 z"
       id="path854"
       transform="scale(0.26458333)" />
    <path
       style="fill:#000000;fill-opacity:1;stroke:none;stroke-width:11.4936;stroke-linecap:round;stroke-linejoin:round;stroke-miterlimit:4;stroke-dasharray:none;stroke-dashoffset:119.244;stroke-opacity:1"
       d="m 398.2663,609.53544 c -7.75726,-54.5494 -18.89874,-107.57766 -30.67999,-146.02246 l -4.10463,-13.39432 5.7e-4,-28.27691 c 10e-4,-52.5393 6.73558,-90.41935 22.12728,-124.46062 5.18593,-11.46954 15.64588,-30.0328 17.84655,-30.0328 1.22035,0 12.21646,20.27449 16.38448,30.3143 14.67022,35.3372 21.31634,68.97975 21.35978,125.25128 l 0.0204,27.24952 -3.99601,12.43737 c -13.22589,41.16487 -27.47669,115.25428 -32.83908,161.14797 -0.63761,5.45695 -1.42848,10.44612 -1.7575,11.08706 -0.32901,0.64092 -2.29182,-10.74425 -4.3618,-25.30039 z"
       id="path856"
       sodipodi:nodetypes="sscssssscsssss"
       transform="scale(0.26458333)" />
    <path
       style="fill:#000000;fill-opacity:1;stroke:none;stroke-width:11.4936;stroke-linecap:round;stroke-linejoin:round;stroke-miterlimit:4;stroke-dasharray:none;stroke-dashoffset:119.244;stroke-opacity:1"
       d="m 409.87568,685.62196 c 2.00721,-24.48783 7.91744,-69.65722 13.48345,-103.04833 23.27683,-139.6403 60.04496,-224.85141 103.63258,-240.17122 3.12472,-1.09825 10.21889,-2.69261 15.76483,-3.54303 32.58167,-4.99607 62.70573,6.6843 83.15497,32.24269 12.11093,15.13679 20.8135,33.34971 23.22493,48.60564 3.31841,20.99389 4.15398,43.09988 2.36831,62.65654 -8.04104,88.06508 -64.92624,153.30137 -166.92108,191.42609 -20.71123,7.74166 -53.22357,16.64056 -71.03351,19.44246 l -4.35448,0.68507 z"
       id="path858"
       transform="scale(0.26458333)" />
    <path
       style="fill:#000000;fill-opacity:1;stroke:none;stroke-width:11.4936;stroke-linecap:round;stroke-linejoin:round;stroke-miterlimit:4;stroke-dasharray:none;stroke-dashoffset:119.244;stroke-opacity:1"
       d="m 148.52993,728.42292 v -20.83561 h 253.99605 253.99605 v 20.83561 20.83562 H 402.52598 148.52993 Z"
       id="path860"
       transform="scale(0.26458333)" />
    <path
       style="fill:#000000;fill-opacity:1;stroke:none;stroke-width:11.4936;stroke-linecap:round;stroke-linejoin:round;stroke-miterlimit:4;stroke-dasharray:none;stroke-dashoffset:119.244;stroke-opacity:1"
       d="m 148.52993,782.00022 v -19.84344 h 253.99605 253.99605 v 19.84344 19.84344 H 402.52598 148.52993 Z"
       id="path862"
       transform="scale(0.26458333)" />
    <path
       style="fill:#000000;fill-opacity:1;stroke:none;stroke-width:11.4936;stroke-linecap:round;stroke-linejoin:round;stroke-miterlimit:4;stroke-dasharray:none;stroke-dashoffset:119.244;stroke-opacity:1"
       d="m 326.62482,859.37096 c -40.04239,-1.59739 -81.49306,-4.48398 -114.09979,-7.9458 -20.6959,-2.19727 -62.21567,-7.86572 -63.00293,-8.60143 -0.27285,-0.25498 -0.65052,-6.6777 -0.83927,-14.27272 l -0.34319,-13.80911 h 253.87159 253.87161 l -0.37446,13.64236 c -0.20595,7.5033 -0.66523,13.93833 -1.02061,14.30007 -1.04404,1.06268 -41.29823,6.55085 -67.61778,9.21886 -24.63334,2.49708 -52.58005,4.60922 -86.81506,6.56126 -23.95915,1.36612 -146.12098,2.00392 -173.63011,0.90651 z"
       id="path864"
       transform="scale(0.26458333)" />
    <path
       style="fill:#000000;fill-opacity:1;stroke:none;stroke-width:0.407475px;stroke-linecap:butt;stroke-linejoin:miter;stroke-opacity:1"
       d="m 105.47726,49.082 v 5.910894 H 100.609 v 1.94211 h 4.936 v 12.919249 h 2.30775 V 56.906857 h 4.71163 v -1.913963 h -4.71163 v -5.882622 z"
       id="path850" />
  </g>
</svg>
