<?xml version="1.0" encoding="UTF-8" standalone="no"?>
<svg
   xmlns:dc="http://purl.org/dc/elements/1.1/"
   xmlns:cc="http://creativecommons.org/ns#"
   xmlns:rdf="http://www.w3.org/1999/02/22-rdf-syntax-ns#"
   xmlns:svg="http://www.w3.org/2000/svg"
   xmlns="http://www.w3.org/2000/svg"
   xmlns:sodipodi="http://sodipodi.sourceforge.net/DTD/sodipodi-0.dtd"
   xmlns:inkscape="http://www.inkscape.org/namespaces/inkscape"
   width="210mm"
   height="297mm"
   viewBox="0 0 210 297"
   version="1.1"
   id="svg8"
   inkscape:version="1.0.1 (3bc2e813f5, 2020-09-07)"
   sodipodi:docname="knightEdited.svg">
  <defs
     id="defs2" />
  <sodipodi:namedview
     id="base"
     pagecolor="#ffffff"
     bordercolor="#666666"
     borderopacity="1.0"
     inkscape:pageopacity="0.0"
     inkscape:pageshadow="2"
     inkscape:zoom="1.2797041"
     inkscape:cx="440.04153"
     inkscape:cy="637.50877"
     inkscape:document-units="mm"
     inkscape:current-layer="layer1"
     inkscape:document-rotation="0"
     showgrid="false"
     inkscape:window-width="1920"
     inkscape:window-height="1001"
     inkscape:window-x="-9"
     inkscape:window-y="-9"
     inkscape:window-maximized="1"
     inkscape:object-paths="false" />
  <metadata
     id="metadata5">
    <rdf:RDF>
      <cc:Work
         rdf:about="">
        <dc:format>image/svg+xml</dc:format>
        <dc:type
           rdf:resource="http://purl.org/dc/dcmitype/StillImage" />
        <dc:title />
      </cc:Work>
    </rdf:RDF>
  </metadata>
  <g
     inkscape:label="Layer 1"
     inkscape:groupmode="layer"
     id="layer1">
    <path
       style="opacity:1;fill:none;stroke:none;stroke-width:3.065;stroke-linecap:round;stroke-linejoin:round;stroke-miterlimit:4;stroke-dasharray:none;stroke-dashoffset:0;stroke-opacity:1;paint-order:markers fill stroke"
       d="m 117.54208,71.564204 -4.47183,17.887326 c 0,0 -36.519958,-2.608572 -36.147306,11.92488"
       id="path20"
       sodipodi:nodetypes="ccc" />
    <path
       style="opacity:1;fill:#000000;stroke-width:2.20423;stroke-linecap:round;stroke-linejoin:round;stroke-miterlimit:4;stroke-dasharray:none;stroke-dashoffset:0;paint-order:markers fill stroke;stroke:none"
       d=""
       id="path861" />
    <path
       style="opacity:1;fill:#000000;stroke-width:2.20423;stroke-linecap:round;stroke-linejoin:round;stroke-miterlimit:4;stroke-dasharray:none;stroke-dashoffset:0;paint-order:markers fill stroke;stroke:none"
       d=""
       id="path863" />
    <path
       style="opacity:1;fill:none;stroke-width:2.20423;stroke-linecap:round;stroke-linejoin:round;stroke-miterlimit:4;stroke-dasharray:none;stroke-dashoffset:0;paint-order:markers fill stroke;stroke:none"
       d="m 44.880535,148.55932 c -0.254262,-0.40714 -0.462293,-0.80981 -0.462293,-0.89482 0,-0.16488 2.54167,-1.71881 2.811352,-1.71881 0.0881,0 -0.206442,0.75463 -0.654537,1.67694 -0.448096,0.92232 -0.908659,1.67694 -1.023475,1.67694 -0.114813,0 -0.416785,-0.33311 -0.671047,-0.74025 z"
       id="path869" />
    <path
       style="fill:none;stroke:none;stroke-width:2.265;stroke-linecap:square;stroke-linejoin:round;stroke-miterlimit:4;stroke-dasharray:none;stroke-opacity:1"
       d="m 140.27389,119.63642 c 35.77464,35.02935 11.17958,108.81456 11.17958,108.81456 -10.06162,0 -10.06162,0 -10.06162,0 0,0 28.3216,-69.31339 -1.11796,-108.81456 z"
       id="path871" />
    <path
       style="opacity:1;fill:none;stroke-width:3.19013;stroke-linecap:round;stroke-linejoin:round;stroke-miterlimit:4;stroke-dasharray:none;stroke-dashoffset:0;paint-order:markers fill stroke;stroke:none"
       d="m 143.54383,226.85816 c 0,-0.17919 0.26799,-1.05958 0.59554,-1.95643 1.49217,-4.08571 4.02997,-12.63079 5.51994,-18.58632 5.95047,-23.78444 6.87896,-46.30262 2.61661,-63.45903 -0.49851,-2.00656 -0.89533,-3.85119 -0.88182,-4.09918 0.0576,-1.05758 2.73348,6.57109 3.87907,11.05889 5.09653,19.96554 3.88176,44.66635 -3.58955,72.9892 l -1.15505,4.37867 h -3.49237 c -1.9208,0 -3.49237,-0.14661 -3.49237,-0.3258 z"
       id="path875" />
    <path
       style="opacity:1;fill:none;stroke-width:1.49347;stroke-linecap:butt;stroke-linejoin:miter;stroke-miterlimit:4;stroke-dasharray:none;stroke-dashoffset:0;paint-order:normal;stroke:none"
       d="m 84.789339,104.3082 c -0.408037,-0.23785 -0.414482,-0.26706 -0.214644,-0.97256 0.441329,-1.55806 2.160146,-3.537802 3.618367,-4.167641 1.207942,-0.521739 5.007275,-0.455437 7.810889,0.136306 1.187332,0.250604 2.158788,0.514616 2.158788,0.586696 0,0.141749 -7.352698,3.167959 -9.6433,3.968969 -1.744194,0.60993 -3.160681,0.78014 -3.7301,0.44823 z"
       id="path883" />
    <path
       style="opacity:1;fill:none;fill-opacity:1;fill-rule:nonzero;stroke:none;stroke-width:2.253;stroke-linecap:square;stroke-linejoin:round;stroke-miterlimit:4;stroke-dasharray:none;stroke-dashoffset:0;stroke-opacity:1;paint-order:normal"
       d="m 44.915053,148.82604 c -0.275897,-0.56787 -0.501629,-1.1204 -0.501629,-1.22783 0,-0.22688 2.750481,-1.90788 2.891301,-1.76706 0.117869,0.11787 -1.590345,4.01722 -1.762427,4.0231 -0.06909,0.002 -0.351351,-0.46033 -0.627245,-1.02821 z"
       id="path885" />
    <path
       style="fill:none;stroke:none;stroke-width:0.264583px;stroke-linecap:butt;stroke-linejoin:miter;stroke-opacity:1"
       d="m 150.38369,137.95744 c -0.39135,-1.31321 0.43317,-3.03421 0,-4.3337 -0.23731,-0.71193 -0.15205,0.076 -0.45617,-0.22808 -0.24471,-0.24471 -0.21935,-0.63341 -0.68427,-0.91236 -0.20617,-0.1237 -0.49193,-0.0838 -0.68427,-0.22809 -0.0267,-0.02 -0.38181,-0.98673 -0.68427,-0.68427 -0.10055,0.10056 0.35035,0.71713 0.45618,1.14045 0.11986,0.47943 1.09722,3.78508 1.82471,3.42133 0.0888,-0.0444 0,-1.65215 0,-2.28089"
       id="path903" />
    <path
       style="fill:none;stroke:none;stroke-width:0.264583px;stroke-linecap:butt;stroke-linejoin:miter;stroke-opacity:1"
       d="m 150.1556,133.85183 c 0.076,0.30412 0.11167,0.6213 0.22809,0.91236 0.38159,0.95397 0.62646,1.42319 0.91236,2.28089 0.043,0.129 -0.0916,0.59266 0,0.68427 0.0538,0.0538 0.22809,0.076 0.22809,0 0,-0.0615 -1.34387,-2.25623 -1.36854,-2.28089 -0.24885,-0.24886 -0.65951,-0.17859 -0.91235,-0.68427 -0.10752,-0.21504 -0.12057,-0.46922 -0.22809,-0.68427 -0.36526,-0.73052 -0.22809,-1.69041 -0.22809,-2.50898 0,-0.076 0.076,-0.22809 0,-0.22809 -0.72227,0 1.06791,0.99538 1.14045,1.14045 0.31158,0.62317 0.45617,2.32641 0.45617,2.96516 0,0.22809 -0.22809,0.68426 0,0.68426 0.22599,0 -0.1246,-0.60189 -0.22809,-0.91235 -0.2281,-0.6843 0.45621,-0.45612 0,-1.36854 -0.26556,-0.53112 -0.7953,-0.88533 -1.14044,-1.36853 -0.13257,-0.1856 -0.12089,-0.87769 0,-0.68427 0.41487,0.66379 0.76029,1.36853 1.14044,2.0528"
       id="path905" />
    <path
       style="fill:none;stroke:none;stroke-width:0.264583px;stroke-linecap:butt;stroke-linejoin:miter;stroke-opacity:1"
       d="m 150.1556,133.85183 c 0.15206,0.15206 0.36001,0.26384 0.45618,0.45618 0.17458,0.34915 0.0493,2.91591 0,2.96516 -0.0946,0.0946 -1.04539,-0.95033 -1.14044,-1.14045 -0.39193,-0.78384 0.72604,-1.77951 0.68426,-2.28089 -0.98779,-1.72864 -0.91235,-0.98365 -0.91235,-2.0528 0,-0.17001 0.10787,0.33597 0.22809,0.45618 0.25267,0.25267 0.70363,1.58209 0.68426,1.59662 -1.98799,1.49099 -1.48901,-1.77091 -1.59662,-1.82471 -0.24329,-0.12165 -0.82112,0.27371 -0.45618,-0.45618 0.2337,-0.4674 1.13198,0.6758 1.14045,0.68427 0.12021,0.12021 0.33596,0.10788 0.45618,0.22809 0.14543,0.14544 0.66737,2.61883 0.68426,2.73707 0.0108,0.0753 -0.076,0.22809 0,0.22809 0.0633,0 0.0257,-0.5814 -0.22809,-1.59663 z"
       id="path907" />
    <path
       style="fill:none;stroke:none;stroke-width:0.264583px;stroke-linecap:butt;stroke-linejoin:miter;stroke-opacity:1"
       d="m 150.38369,137.95744 c -0.63528,-0.29816 0.35431,-2.71273 0,-3.42134 -0.034,-0.068 -0.15205,0 -0.22809,0 -0.076,-0.076 -0.18,-0.13192 -0.22808,-0.22809 -0.99619,-2.98856 0.5681,1.3643 -0.68427,-1.14044 -0.10201,-0.20401 0.12652,-0.49449 0,-0.68427 -0.64667,-0.97 -0.91236,-1.2715 -0.91236,-2.50898 0,-0.076 0,0.15206 0,0.22809 0,0.45618 0,0.91235 0,1.36853 0,1.3113 0.29387,2.25013 0.68427,3.42134 0.14512,0.43535 -0.20697,1.18268 0,1.59662 0.068,0.13601 0.38818,-0.136 0.45618,0 0.102,0.20401 -0.16129,0.52299 0,0.68427 0.2688,0.2688 0.70148,1.00057 0.91235,0.68427 0.26673,-0.4001 -0.32408,-0.90619 -0.45617,-1.36854 -0.12481,-0.43682 0.28281,-1.5419 0,-1.82471 -0.0538,-0.0538 -0.17433,0.0538 -0.22809,0 -0.10753,-0.10752 0.0481,-0.31192 0,-0.45618 -0.0538,-0.16128 -0.19475,-0.28947 -0.22809,-0.45618 -0.0447,-0.22366 0.0553,-0.46299 0,-0.68426 -0.0888,-0.35528 -0.82203,-0.95979 -0.45618,-0.22809 0.37226,0.74452 1.97225,2.67007 1.36853,3.87751 -0.068,0.13601 -0.36494,0.12165 -0.45617,0 -0.20401,-0.27201 -0.26758,-0.62944 -0.45618,-0.91235 -0.50455,-0.75682 -1.54956,-1.45542 -1.82472,-2.2809 -0.0962,-0.28851 0,-0.60823 0,-0.91235 0,-0.93488 0.37192,0.21574 0.68427,0.68427 -0.1597,0.31492 0.43279,0.2047 0.45618,0.22808 0.27781,0.27781 0.10684,0.50961 0.45618,0.68427 0.60072,0.30037 1.25729,0.68987 1.59662,1.36854 0.0962,0.19234 -0.3971,-0.24941 -0.45618,-0.45618 -0.1988,-0.6958 -0.47338,-1.42015 -0.68426,-2.0528 -0.0721,-0.21639 0.102,-0.48026 0,-0.68427 -0.6934,-1.3868 -0.45618,2.61128 -0.45618,1.82471 0,-0.26284 -0.0556,-0.96798 -0.22809,-1.14044 -0.0538,-0.0538 -0.19409,0.068 -0.22809,0 -0.11432,-0.22865 0.17706,-0.96339 0,-1.14045 -0.0538,-0.0538 -0.17433,0.0538 -0.22809,0 -0.0335,-0.0335 0.0268,-0.68427 0,-0.68427 -0.076,0 0,0.15207 0,0.22809 0,0.38015 0,0.7603 0,1.14045 0,0.28166 -0.15126,1.44536 0,1.59662 0.19008,0.19008 0.49419,0.26611 0.68427,0.45618 0.13966,0.13967 0.30278,0.91035 0.45618,1.14045 0.0596,0.0895 0.18,0.13191 0.22809,0.22808 0.068,0.13601 -0.15206,0.45618 0,0.45618 0.076,0 0,-0.15206 0,-0.22809 0,-0.23961 0.0671,-0.71101 0,-0.91235 -0.23732,-0.71194 -0.15206,0.076 -0.45618,-0.22809 -0.36064,-0.36064 0.42186,-0.9312 0.68426,-1.36854"
       id="path911" />
    <path
       style="fill:#000000;stroke-width:9.05229;stroke-linecap:round;stroke-linejoin:round;stroke-dashoffset:119.244;stroke:none"
       d="m 229.48232,885.82783 c -0.72259,-4.31602 -2.63801,-20.77086 -3.70671,-31.8433 -1.61019,-16.68255 -1.37069,-67.80015 0.38442,-82.05021 4.85579,-39.42494 15.16003,-66.67992 31.71132,-83.8773 2.84688,-2.95801 9.74751,-8.64137 15.33474,-12.6297 15.09435,-10.77478 24.11846,-18.58131 41.06148,-35.52121 25.59658,-25.59187 51.85121,-57.85892 75.48092,-92.76635 3.73251,-5.51394 9.1497,-13.36596 12.0382,-17.44893 5.40455,-7.63952 9.34191,-14.69413 9.34191,-16.73801 0,-4.39016 -4.92633,-7.63121 -8.86886,-5.83488 -1.1732,0.53455 -3.44545,3.26517 -5.37311,6.45704 -5.58191,9.24261 -9.59603,14.17623 -15.9884,19.65081 -29.94136,25.64253 -92.26198,49.78128 -168.44936,65.24579 l -14.65281,2.97422 -5.04564,4.62341 c -2.77509,2.54287 -7.41534,5.82632 -10.31166,7.29655 -7.04981,3.57863 -13.97108,3.75896 -20.8356,0.54285 -5.23841,-2.45424 -12.70287,-9.55716 -17.47025,-16.62403 -12.48211,-18.50277 -12.70724,-32.73841 -0.6443,-40.74145 2.14893,-1.42568 4.69239,-3.1396 5.65213,-3.8087 1.23227,-0.85909 131.05588,-147.79379 146.22813,-165.50137 0.66425,-0.77524 1.43692,-3.62392 1.71706,-6.3304 0.91572,-8.84732 5.62985,-15.42167 15.14947,-21.12757 14.15814,-8.48613 41.06705,-14.491 64.96957,-14.49829 6.48453,-0.002 20.86136,-0.23702 31.94852,-0.52231 18.90598,-0.48648 20.27613,-0.62 22.05216,-2.14893 1.61243,-1.3881 2.93711,-5.8084 8.91907,-29.76173 3.86396,-15.47233 7.37403,-29.45194 7.80015,-31.06581 l 0.77476,-2.93431 2.50847,1.28903 c 12.59313,6.47125 23.10501,17.22745 29.67704,30.3668 4.19546,8.38788 5.83861,14.45953 8.08012,29.85703 0.30936,2.12505 2.05684,3.86854 11.47107,11.44483 87.14458,70.13144 130.28521,181.46331 127.6748,329.48697 -0.92032,52.18668 -6.83041,103.02521 -18.15757,156.19116 -2.7871,13.08176 -11.7174,48.91507 -12.51018,50.19782 -0.24478,0.39605 -78.64355,0.69013 -183.98119,0.69013 H 229.90752 Z m 345.43437,-18.37558 c 1.51029,-1.00845 2.41347,-3.42795 6.04838,-16.20272 12.87982,-45.26579 21.54674,-93.40264 25.67677,-142.61109 1.35194,-16.10816 1.34548,-70.38642 -0.01,-84.00379 -6.49116,-65.21103 -22.58098,-112.03844 -52.08869,-151.59754 -7.06703,-9.47432 -20.02653,-24.17793 -21.96594,-24.92216 -2.60491,-0.99959 -4.99763,-0.44655 -6.23439,1.44098 -1.62372,2.47809 -1.06154,4.14505 3.55523,10.5419 16.06751,22.26264 29.48826,53.15493 37.0912,85.37767 9.11825,38.64489 11.38647,88.53711 6.22767,136.98501 -5.9885,56.23988 -20.96361,119.99808 -40.26544,171.43464 -3.3982,9.0557 -3.61947,10.66277 -1.75217,12.7261 1.19167,1.31679 2.92558,1.4281 22.07541,1.41707 11.43018,-0.006 21.16907,-0.27031 21.64196,-0.58607 z M 170.31481,575.76659 c 10.27234,-7.01109 12.63605,-8.96656 12.63605,-10.45363 0,-3.62292 -1.00858,-3.75405 -18.49067,-2.40413 -8.95565,0.69154 -17.07419,1.58066 -18.04121,1.97582 -2.70656,1.10601 -2.17051,3.16861 3.03407,11.67436 3.72683,6.09071 5.17396,7.83196 6.509,7.83196 0.94419,0 7.40293,-3.88097 14.35276,-8.62438 z M 337.67412,409.38377 c 4.97668,-0.84714 11.3122,-2.63524 16.10211,-4.54459 8.24927,-3.28832 40.1609,-18.91953 40.1609,-19.67195 0,-0.60665 -17.29469,-4.4886 -28.52222,-6.40208 -12.73142,-2.16977 -34.01469,-2.43649 -40.25901,-0.50451 -5.96825,1.84656 -11.51049,5.72133 -14.16063,9.90015 -4.14724,6.53952 -2.50898,15.69774 3.79878,21.23603 2.76898,2.4312 2.86878,2.45314 8.73801,1.92145 3.26537,-0.29581 9.6293,-1.16634 14.14206,-1.9345 z"
       id="path850"
       transform="scale(0.26458333)" />
    <path
       style="fill:#000000;stroke:none;stroke-width:3.30317;stroke-linecap:round;stroke-linejoin:round;stroke-dashoffset:119.244"
       d="m 100.14016,88.193684 c -0.0109,-1.074283 1.68923,-16.368158 1.81855,-16.358889 0.0827,0.0059 2.35459,3.67165 5.04856,8.146044 l 4.89811,8.135262 -1.09904,0.209742 c -0.60448,0.115361 -3.25077,0.220094 -5.88064,0.232747 -3.65899,0.01759 -4.78253,-0.06807 -4.78554,-0.364906 z"
       id="path852" />
  </g>
</svg>
