<?xml version="1.0" encoding="UTF-8" standalone="no"?>
<svg
   xmlns:dc="http://purl.org/dc/elements/1.1/"
   xmlns:cc="http://creativecommons.org/ns#"
   xmlns:rdf="http://www.w3.org/1999/02/22-rdf-syntax-ns#"
   xmlns:svg="http://www.w3.org/2000/svg"
   xmlns="http://www.w3.org/2000/svg"
   xmlns:sodipodi="http://sodipodi.sourceforge.net/DTD/sodipodi-0.dtd"
   xmlns:inkscape="http://www.inkscape.org/namespaces/inkscape"
   width="210mm"
   height="297mm"
   viewBox="0 0 210 297"
   version="1.1"
   id="svg919"
   sodipodi:docname="pondEdited.svg"
   inkscape:version="1.0.1 (3bc2e813f5, 2020-09-07)">
  <defs
     id="defs913">
    <inkscape:path-effect
       effect="spiro"
       id="path-effect1605"
       is_visible="true"
       lpeversion="1" />
    <inkscape:path-effect
       effect="spiro"
       id="path-effect1568"
       is_visible="true"
       lpeversion="1" />
  </defs>
  <sodipodi:namedview
     id="base"
     pagecolor="#ffffff"
     bordercolor="#666666"
     borderopacity="1.0"
     inkscape:pageopacity="0.0"
     inkscape:pageshadow="2"
     inkscape:zoom="1.0027139"
     inkscape:cx="419.56694"
     inkscape:cy="596.46227"
     inkscape:document-units="mm"
     inkscape:current-layer="layer1"
     inkscape:document-rotation="0"
     showgrid="false"
     inkscape:snap-grids="true"
     inkscape:lockguides="true"
     inkscape:window-width="1920"
     inkscape:window-height="1001"
     inkscape:window-x="-9"
     inkscape:window-y="-9"
     inkscape:window-maximized="1" />
  <metadata
     id="metadata916">
    <rdf:RDF>
      <cc:Work
         rdf:about="">
        <dc:format>image/svg+xml</dc:format>
        <dc:type
           rdf:resource="http://purl.org/dc/dcmitype/StillImage" />
        <dc:title></dc:title>
      </cc:Work>
    </rdf:RDF>
  </metadata>
  <g
     inkscape:label="Layer 1"
     inkscape:groupmode="layer"
     id="layer1">
    <path
       style="fill:none;stroke:none;stroke-width:3.065;stroke-linecap:butt;stroke-linejoin:miter;stroke-miterlimit:4;stroke-dasharray:none;stroke-opacity:1"
       d="M 105.40576,238.125 H 37.033227 c 0,0 -1.571784,-11.52641 10.740511,-11.52641 12.312293,0 57.632022,0 57.632022,0"
       id="path1529" />
    <path
       style="fill:none;stroke:none;stroke-width:3.22191;stroke-linecap:butt;stroke-linejoin:miter;stroke-miterlimit:4;stroke-dasharray:none;stroke-opacity:1"
       d="m 55.632649,226.58013 c 0,0 -6.811058,1.21647 -6.811058,-6.81221 0,-8.02868 7.334983,-7.05551 7.334983,-7.05551 h 48.987216"
       id="path1531" />
    <path
       style="fill:none;stroke:none;stroke-width:3.065;stroke-linecap:butt;stroke-linejoin:miter;stroke-miterlimit:4;stroke-dasharray:none;stroke-opacity:1"
       d="m 63.49156,212.45256 c 0,0 29.339933,-14.14604 29.339933,-63.65718 0,-13.09819 -2.357673,-17.2896 -2.357673,-17.2896"
       id="path1535" />
    <path
       style="fill:none;stroke:none;stroke-width:3.053;stroke-linecap:butt;stroke-linejoin:miter;stroke-miterlimit:4;stroke-dasharray:none;stroke-opacity:1"
       d="m 87.06531,122.09973 c 0,0 -6.03966,-0.31885 -6.03966,4.57221 0,4.89106 3.169891,4.29822 3.169891,4.29822 h 21.170349"
       id="path1531-7"
       sodipodi:nodetypes="cscc" />
    <path
       style="fill:none;stroke:none;stroke-width:3.056;stroke-linecap:butt;stroke-linejoin:round;stroke-miterlimit:4;stroke-dasharray:none;stroke-opacity:1"
       d="m 71.460904,122.18496 c 0,0 -4.545453,0.23132 -4.545453,-7.09368 0,-8.02868 5.046663,-7.05551 5.046663,-7.05551 h 33.704506 m -35.050131,14.14919 34.830001,-0.28147"
       id="path1531-70"
       sodipodi:nodetypes="cscccc" />
    <path
       style="fill:none;stroke:none;stroke-width:3.065;stroke-linecap:butt;stroke-linejoin:miter;stroke-miterlimit:4;stroke-dasharray:none;stroke-opacity:1"
       d="m 92.247648,108.22584 c -5.60684,-3.52341 -9.600015,-9.513177 -10.695921,-16.043881 -1.143801,-6.816117 0.902814,-14.100004 5.429314,-19.32289 4.526501,-5.222885 11.44555,-8.283995 18.355039,-8.120595"
       id="path1566"
       inkscape:path-effect="#path-effect1568"
       inkscape:original-d="M 92.247648,108.22584 C 88.682605,102.87815 85.117297,97.530183 81.551727,92.181959 77.986154,86.833733 97.408224,73.886567 105.33608,64.738474" />
    <path
       style="fill:none;stroke:none;stroke-width:3.06501;stroke-linecap:butt;stroke-linejoin:miter;stroke-miterlimit:4;stroke-dasharray:none;stroke-opacity:1"
       d="m 104.85132,238.11173 h 68.37253 c 0,0 1.57178,-11.52642 -10.74051,-11.52642 -12.31229,0 -57.63202,0 -57.63202,0"
       id="path1529-9" />
    <path
       style="fill:none;stroke:none;stroke-width:3.22191;stroke-linecap:butt;stroke-linejoin:miter;stroke-miterlimit:4;stroke-dasharray:none;stroke-opacity:1"
       d="m 154.62443,226.56685 c 0,0 6.81106,1.21648 6.81106,-6.8122 0,-8.02869 -7.33499,-7.05552 -7.33499,-7.05552 h -48.98721"
       id="path1531-8" />
    <path
       style="fill:none;stroke:none;stroke-width:3.06501;stroke-linecap:butt;stroke-linejoin:miter;stroke-miterlimit:4;stroke-dasharray:none;stroke-opacity:1"
       d="m 146.76552,212.43928 c 0,0 -29.33993,-14.14604 -29.33993,-63.65717 0,-13.09819 2.35767,-17.2896 2.35767,-17.2896"
       id="path1535-3" />
    <path
       style="fill:none;stroke:none;stroke-width:3.053;stroke-linecap:butt;stroke-linejoin:miter;stroke-miterlimit:4;stroke-dasharray:none;stroke-opacity:1"
       d="m 123.19177,122.08646 c 0,0 6.03966,-0.31885 6.03966,4.57221 0,4.89106 -3.16989,4.29822 -3.16989,4.29822 h -21.17035"
       id="path1531-7-6"
       sodipodi:nodetypes="cscc" />
    <path
       style="fill:none;stroke:none;stroke-width:3.05599;stroke-linecap:butt;stroke-linejoin:round;stroke-miterlimit:4;stroke-dasharray:none;stroke-opacity:1"
       d="m 138.79617,122.17169 c 0,0 4.54546,0.23132 4.54546,-7.09368 0,-8.02868 -5.04667,-7.05551 -5.04667,-7.05551 h -33.7045 m 35.05013,14.14919 -34.83,-0.28147"
       id="path1531-70-5"
       sodipodi:nodetypes="cscccc" />
    <path
       style="fill:none;stroke:none;stroke-width:3.06501;stroke-linecap:butt;stroke-linejoin:miter;stroke-miterlimit:4;stroke-dasharray:none;stroke-opacity:1"
       d="m 118.00943,108.21257 c 5.60684,-3.52342 9.60001,-9.513178 10.69592,-16.043882 1.1438,-6.816117 -0.90281,-14.100003 -5.42931,-19.322888 -4.5265,-5.222886 -11.44555,-8.283997 -18.35504,-8.120598"
       id="path1566-0"
       inkscape:path-effect="#path-effect1605"
       inkscape:original-d="m 118.00943,108.21257 c 3.56504,-5.34769 7.13035,-10.695658 10.69592,-16.043882 3.56557,-5.348227 -15.8565,-18.295393 -23.78435,-27.443486" />
    <path
       style="fill:#000000;fill-opacity:1;stroke-width:11.5529;stroke-linecap:round;stroke-linejoin:round;stroke-dashoffset:119.244;stroke:none"
       d="m 342.98111,396.75426 c -11.76503,-9.94263 -22.37686,-26.19444 -26.55058,-40.66174 -7.92953,-27.48596 0.74845,-60.12228 21.45936,-80.70474 16.0165,-15.91717 35.86047,-23.99059 59.1502,-24.06498 42.07049,-0.13437 75.77768,27.90006 82.95332,68.99266 4.94923,28.34269 -6.15994,58.00621 -28.77072,76.82309 l -5.82967,4.8515 H 397.2848 349.17659 Z"
       id="path844"
       transform="scale(0.26458333)" />
    <path
       style="fill:#000000;fill-opacity:1;stroke-width:11.5529;stroke-linecap:round;stroke-linejoin:round;stroke-dashoffset:119.244;stroke:none"
       d="m 266.64308,454.34795 c -8.51963,-4.32838 -10.34775,-28.1856 -2.79893,-36.52635 l 2.63825,-2.91503 130.44752,0.0166 c 82.6138,0.0105 131.11239,0.3724 132.2607,0.98695 3.24773,1.73813 5.4799,8.02102 5.87661,16.54083 0.44462,9.54903 -0.93758,15.40755 -4.60035,19.49859 l -2.6936,3.00856 -129.5836,0.19359 c -84.8033,0.12669 -130.26196,-0.15105 -131.5466,-0.80371 z"
       id="path846"
       transform="scale(0.26458333)" />
    <path
       style="fill:#000000;fill-opacity:1;stroke-width:11.5529;stroke-linecap:round;stroke-linejoin:round;stroke-dashoffset:119.244;stroke:none"
       d="m 314.41309,486.54387 c -2.23878,-3.1963 -2.01826,-10.89544 0.40013,-13.96991 4.03484,-5.12948 5.66307,-5.23141 83.81056,-5.24688 l 72.30377,-0.0143 4.7215,2.3253 c 3.90837,1.92484 4.92799,3.01452 5.92053,6.32734 0.97455,3.25274 0.9308,4.77796 -0.23368,8.14628 l -1.43271,4.14424 -81.96678,0.25511 -81.96678,0.2551 z"
       id="path848"
       transform="scale(0.26458333)" />
    <path
       style="fill:#000000;fill-opacity:1;stroke-width:11.5529;stroke-linecap:round;stroke-linejoin:round;stroke-dashoffset:119.244;stroke:none"
       d="m 266.98105,792.2526 c 10.22739,-8.6087 24.62494,-23.99968 33.55416,-35.86939 25.54674,-33.95954 42.77357,-76.22174 51.16189,-125.51432 6.53963,-38.42905 6.82938,-94.97841 0.62289,-121.56705 -0.88307,-3.78307 -1.48454,-6.98608 -1.33661,-7.1178 0.14793,-0.13172 21.22066,-0.56718 46.8283,-0.9677 l 46.55935,-0.72821 -1.37451,5.35277 c -6.24433,24.31735 -7.07684,72.88643 -1.9274,112.4454 3.12413,24.00019 9.94028,51.97563 17.92098,73.55282 8.98948,24.30462 26.24015,54.48687 41.6767,72.91878 6.80595,8.1266 23.67221,24.9136 29.59971,29.46062 l 3.49053,2.6776 -136.13055,-0.0133 -136.13055,-0.0133 z"
       id="path850"
       transform="scale(0.26458333)" />
    <path
       style="fill:#000000;fill-opacity:1;stroke-width:11.5529;stroke-linecap:round;stroke-linejoin:round;stroke-dashoffset:119.244;stroke:none"
       d="m 198.46555,847.82058 c -4.36565,-2.66189 -6.49298,-7.25224 -7.06482,-15.24443 -0.75145,-10.50256 2.85299,-17.89645 10.05444,-20.62494 1.92789,-0.73044 62.52394,-1.06333 196.30487,-1.07842 l 193.51616,-0.0218 3.90169,2.19287 c 5.53936,3.11329 7.89146,8.43431 7.88949,17.84792 -0.002,8.75823 -1.87081,13.27445 -6.87766,16.61924 l -3.38869,2.26379 -195.57135,-0.004 c -192.21096,-0.004 -195.62621,-0.0372 -198.76413,-1.95048 z"
       id="path852"
       transform="scale(0.26458333)" />
    <path
       style="fill:#000000;fill-opacity:1;stroke-width:11.5529;stroke-linecap:round;stroke-linejoin:round;stroke-dashoffset:119.244;stroke:none"
       d="m 146.66495,889.07751 c 1.8419,-13.43815 10.16614,-22.4173 23.3784,-25.21774 3.81949,-0.80956 67.01764,-1.12016 227.92134,-1.12016 197.61876,0 223.30438,0.17326 228.58043,1.54187 12.64399,3.27986 18.72226,10.53367 21.89795,26.13302 l 0.65984,3.2412 H 397.57017 146.03744 Z"
       id="path854"
       transform="scale(0.26458333)" />
  </g>
</svg>
