<?xml version="1.0" encoding="UTF-8" standalone="no"?>
<svg
   xmlns:dc="http://purl.org/dc/elements/1.1/"
   xmlns:cc="http://creativecommons.org/ns#"
   xmlns:rdf="http://www.w3.org/1999/02/22-rdf-syntax-ns#"
   xmlns:svg="http://www.w3.org/2000/svg"
   xmlns="http://www.w3.org/2000/svg"
   xmlns:sodipodi="http://sodipodi.sourceforge.net/DTD/sodipodi-0.dtd"
   xmlns:inkscape="http://www.inkscape.org/namespaces/inkscape"
   width="210mm"
   height="297mm"
   viewBox="0 0 210 297"
   version="1.1"
   id="svg3934"
   inkscape:version="1.0.1 (3bc2e813f5, 2020-09-07)"
   sodipodi:docname="rookEdited.svg">
  <defs
     id="defs3928">
    <inkscape:path-effect
       effect="spiro"
       id="path-effect1568"
       is_visible="true"
       lpeversion="1" />
  </defs>
  <sodipodi:namedview
     id="base"
     pagecolor="#ffffff"
     bordercolor="#666666"
     borderopacity="1.0"
     inkscape:pageopacity="0.0"
     inkscape:pageshadow="2"
     inkscape:zoom="0.97531385"
     inkscape:cx="290.86062"
     inkscape:cy="607.7944"
     inkscape:document-units="mm"
     inkscape:current-layer="layer1"
     inkscape:document-rotation="0"
     showgrid="false"
     inkscape:window-width="1920"
     inkscape:window-height="1001"
     inkscape:window-x="-9"
     inkscape:window-y="-9"
     inkscape:window-maximized="1" />
  <metadata
     id="metadata3931">
    <rdf:RDF>
      <cc:Work
         rdf:about="">
        <dc:format>image/svg+xml</dc:format>
        <dc:type
           rdf:resource="http://purl.org/dc/dcmitype/StillImage" />
        <dc:title></dc:title>
      </cc:Work>
    </rdf:RDF>
  </metadata>
  <g
     inkscape:label="Layer 1"
     inkscape:groupmode="layer"
     id="layer1">
    <path
       style="fill:#000000;stroke:none;stroke-width:3.001;stroke-linecap:butt;stroke-linejoin:miter;stroke-miterlimit:4;stroke-dasharray:none;stroke-opacity:1;fill-opacity:0"
       d="m 104.79117,238.25649 -70.133184,0.31769 v -14.96545 h 70.133184"
       id="path3975"
       sodipodi:nodetypes="cccc" />
    <path
       style="fill:#000000;stroke:none;stroke-width:3.001;stroke-linecap:butt;stroke-linejoin:miter;stroke-miterlimit:4;stroke-dasharray:none;stroke-opacity:1;fill-opacity:0"
       d="m 44.677009,223.60873 c 0,-13.78614 0,-13.78614 0,-13.78614 h 60.602901"
       id="path3977" />
    <path
       style="fill:#000000;stroke:none;stroke-width:3.001;stroke-linecap:butt;stroke-linejoin:miter;stroke-miterlimit:4;stroke-dasharray:none;stroke-opacity:1;fill-opacity:0"
       d="m 56.406598,209.53538 11.729277,-16.00802 36.899665,0.21142"
       id="path3979"
       sodipodi:nodetypes="ccc" />
    <path
       style="fill:#000000;stroke:none;stroke-width:3.001;stroke-linecap:butt;stroke-linejoin:miter;stroke-miterlimit:4;stroke-dasharray:none;stroke-opacity:1;fill-opacity:0"
       d="m 68.135875,193.52736 -0.488842,-65.2861"
       id="path3981"
       sodipodi:nodetypes="cc" />
    <path
       style="fill:#000000;stroke:none;stroke-width:3.001;stroke-linecap:butt;stroke-linejoin:miter;stroke-miterlimit:4;stroke-dasharray:none;stroke-opacity:1;fill-opacity:0"
       d="m 56.479101,114.25849 11.242951,13.81049 h 37.395058"
       id="path3979-2" />
    <path
       style="fill:#000000;stroke:none;stroke-width:3.001;stroke-linecap:butt;stroke-linejoin:miter;stroke-miterlimit:4;stroke-dasharray:none;stroke-opacity:1;fill-opacity:0"
       d="m 56.479102,114.25849 -17.18386,-0.0789 V 70.237011 H 57.626141 V 85.805209 H 84.756055 L 84.511644,67.468233 105.2865,67.223812"
       id="path4002"
       sodipodi:nodetypes="cccccccc" />
    <path
       style="fill:#000000;stroke:none;stroke-width:3.001;stroke-linecap:butt;stroke-linejoin:miter;stroke-miterlimit:4;stroke-dasharray:none;stroke-opacity:1;fill-opacity:0"
       d="M 56.479101,114.25848 H 104.79893"
       id="path4004" />
    <path
       style="fill:#000000;stroke:none;stroke-width:3.00101;stroke-linecap:butt;stroke-linejoin:miter;stroke-miterlimit:4;stroke-dasharray:none;stroke-opacity:1;fill-opacity:0"
       d="m 103.85555,238.25649 70.13325,0.31769 v -14.96545 h -70.13325"
       id="path3975-2"
       sodipodi:nodetypes="cccc" />
    <path
       style="fill:#000000;stroke:none;stroke-width:3.00101;stroke-linecap:butt;stroke-linejoin:miter;stroke-miterlimit:4;stroke-dasharray:none;stroke-opacity:1;fill-opacity:0"
       d="m 163.96978,223.60873 c 0,-13.78614 0,-13.78614 0,-13.78614 h -60.60297"
       id="path3977-0" />
    <path
       style="fill:#000000;stroke:none;stroke-width:3.00101;stroke-linecap:butt;stroke-linejoin:miter;stroke-miterlimit:4;stroke-dasharray:none;stroke-opacity:1;fill-opacity:0"
       d="m 152.24019,209.53538 -11.72928,-16.00802 -36.89974,0.21142"
       id="path3979-4"
       sodipodi:nodetypes="ccc" />
    <path
       style="fill:#000000;stroke:none;stroke-width:3.00101;stroke-linecap:butt;stroke-linejoin:miter;stroke-miterlimit:4;stroke-dasharray:none;stroke-opacity:1;fill-opacity:0"
       d="m 140.51091,193.52736 0.48885,-65.2861"
       id="path3981-3"
       sodipodi:nodetypes="cc" />
    <path
       style="fill:#000000;stroke:none;stroke-width:3.00101;stroke-linecap:butt;stroke-linejoin:miter;stroke-miterlimit:4;stroke-dasharray:none;stroke-opacity:1;fill-opacity:0"
       d="m 152.16769,114.25849 -11.24295,13.81049 H 103.5296"
       id="path3979-2-0" />
    <path
       style="fill:#000000;stroke:none;stroke-width:3.00101;stroke-linecap:butt;stroke-linejoin:miter;stroke-miterlimit:4;stroke-dasharray:none;stroke-opacity:1;fill-opacity:0"
       d="m 152.16768,114.25849 17.18386,-0.0789 V 70.237011 h -18.33089 v 15.568198 h -27.12992 l 0.24441,-18.336976 -20.77493,-0.244421"
       id="path4002-9"
       sodipodi:nodetypes="cccccccc" />
    <path
       style="fill:#000000;stroke:none;stroke-width:3.00101;stroke-linecap:butt;stroke-linejoin:miter;stroke-miterlimit:4;stroke-dasharray:none;stroke-opacity:1;fill-opacity:0"
       d="m 152.16769,114.25849 h -48.3199"
       id="path4004-7" />
    <path
       style="opacity:1;fill:#000000;fill-opacity:1;stroke:none;stroke-width:2.79401;stroke-linecap:round;stroke-linejoin:round;stroke-miterlimit:4;stroke-dasharray:none;stroke-dashoffset:119.244;stroke-opacity:1"
       d="M 154.49426,348.39072 V 271.4924 h 28.70871 28.70871 v 29.73402 29.73402 h 57.47194 57.47194 l -0.72288,-34.69261 -0.72287,-34.69261 22.4562,-0.6781 c 28.62953,-0.86453 62.45578,-0.86709 92.01009,-0.007 l 23.23362,0.67616 -0.67696,34.69707 -0.67697,34.69707 h 57.5833 57.58329 v -29.734 -29.73402 h 28.70871 28.70871 v 76.89832 76.89833 H 394.41703 154.49426 Z"
       id="path4012"
       transform="scale(0.26458333)" />
    <path
       style="opacity:1;fill:#000000;fill-opacity:1;stroke:none;stroke-width:2.79401;stroke-linecap:round;stroke-linejoin:round;stroke-miterlimit:4;stroke-dasharray:none;stroke-dashoffset:119.244;stroke-opacity:1"
       d="M 242.428,457.53861 226.29269,437.59278 H 393.9177 c 92.19376,0 167.62502,0.22731 167.62502,0.50513 0,0.27782 -7.17274,9.27492 -15.93942,19.99356 l -15.93942,19.48844 -135.55028,-0.0477 -135.55028,-0.0477 z"
       id="path4014"
       transform="scale(0.26458333)" />
    <path
       style="opacity:1;fill:#000000;fill-opacity:1;stroke:none;stroke-width:2.79401;stroke-linecap:round;stroke-linejoin:round;stroke-miterlimit:4;stroke-dasharray:none;stroke-dashoffset:119.244;stroke-opacity:1"
       d="m 263.17648,685.46171 c -4.1e-4,-22.1339 -0.307,-75.19375 -0.68131,-117.91076 l -0.68056,-77.66731 h 132.48772 132.48772 l -0.58966,88.94573 c -0.3243,48.92015 -0.86264,101.97999 -1.19631,117.91076 l -0.60667,28.96503 H 393.78732 263.17722 Z"
       id="path4016"
       transform="scale(0.26458333)" />
    <path
       style="opacity:1;fill:#000000;fill-opacity:1;stroke:none;stroke-width:2.79401;stroke-linecap:round;stroke-linejoin:round;stroke-miterlimit:4;stroke-dasharray:none;stroke-dashoffset:119.244;stroke-opacity:1"
       d="m 225.4116,786.32758 c 0.18798,-0.49294 8.16068,-11.5663 17.71713,-24.60747 l 17.37535,-23.71121 133.85801,0.0203 133.85802,0.0203 16.91763,23.17986 c 9.3047,12.74892 17.2866,23.81312 17.73757,24.58713 0.6936,1.19045 -25.26616,1.40727 -168.49277,1.40727 -96.19747,0 -169.16512,-0.38703 -168.97094,-0.89624 z"
       id="path4018"
       transform="scale(0.26458333)" />
    <path
       style="opacity:1;fill:#000000;fill-opacity:1;stroke:none;stroke-width:2.79401;stroke-linecap:round;stroke-linejoin:round;stroke-miterlimit:4;stroke-dasharray:none;stroke-dashoffset:119.244;stroke-opacity:1"
       d="m 175.00048,819.00846 v -19.48091 h 219.41655 219.41655 v 19.48091 19.48091 H 394.41703 175.00048 Z"
       id="path4020"
       transform="scale(0.26458333)" />
    <path
       style="opacity:1;fill:#000000;fill-opacity:1;stroke:none;stroke-width:2.79401;stroke-linecap:round;stroke-linejoin:round;stroke-miterlimit:4;stroke-dasharray:none;stroke-dashoffset:119.244;stroke-opacity:1"
       d="M 137.06397,873.51212 V 850.7931 h 257.35306 257.35306 v 22.71408 22.71408 l -16.14865,-0.68422 c -21.17071,-0.89701 -435.60365,-0.89573 -471.1304,10e-4 l -27.42707,0.69263 z"
       id="path4022"
       transform="scale(0.26458333)" />
  </g>
</svg>
